# xmcd
#
# Track frame offsets:
#	150
#	23412
#	44964
#	68403
#	84467
#	102779
#	119875
#	140878
#	159541
#	177189
#	196293
#	214660
#
# Disc length: 3103 seconds
# Revision: 0
# Processed by: cddbd v1.5.2PL0 Copyright (c) Steve Scherf et al.
# Submitted via: dBpowerAMP V12.0
#
DISCID=aa0c1d0c
DTITLE=Ninth Circle - The Power Of One
DYEAR=2008
DGENRE=Power Metal
TTITLE0=Frontman
TTITLE1=The Power Of One
TTITLE2=The Journey
TTITLE3=Where No One Lives
TTITLE4=Our Last Days
TTITLE5=How Many Times
TTITLE6=Fire Falling
TTITLE7=Hour 21
TTITLE8=Obsession
TTITLE9=If It Bleeds
TTITLE10=The Trooper
TTITLE11=Prisoner Of The World
EXTD=
EXTT0=
EXTT1=
EXTT2=
EXTT3=
EXTT4=
EXTT5=
EXTT6=
EXTT7=
EXTT8=
EXTT9=
EXTT10=
EXTT11=
PLAYORDER=
